<?xml version="1.0" encoding="UTF-8"?>
<svg id="Layer_1" xmlns="http://www.w3.org/2000/svg" version="1.1" viewBox="0 0 138 140">
  <!-- Generator: Adobe Illustrator 29.2.1, SVG Export Plug-In . SVG Version: 2.1.0 Build 116)  -->
  <defs>
    <style>
      .st0 {
        fill: #a2a5b1;
      }
    </style>
  </defs>
  <path class="st0" d="M22.7,34.5l-.8,1.2-5.1-2.6h0s4.1,3.9,4.1,3.9l-.8,1.2-8.6-4.3.8-1.2,5.6,3h0s-4.7-4.3-4.7-4.3l.7-1,5.6,3h0s-4.7-4.3-4.7-4.3l.8-1.2,6.9,6.7Z"/>
  <path class="st0" d="M22,23l-1.8,1.9,2,1.8,1.4-1.5,1,.9-1.4,1.5,2.1,1.9,1.8-1.9,1,.9-2.7,2.9-6.9-6.5,2.7-2.9,1,.9Z"/>
  <path class="st0" d="M30.1,24.7l1.8-1.5.9,1-2.9,2.5-6.2-7.2,1.1-.9,5.3,6.2Z"/>
  <path class="st0" d="M34.2,14.3l.5.7-1.1.8-.4-.6c-.4-.6-.8-.8-1.3-.5-.4.3-.5.7-.1,1.2l2.9,4.3c.3.5.8.6,1.2.3.4-.3.5-.7,0-1.4l-.6-.9,1.2-.7.6.9c.8,1.2.6,2.3-.6,3.1-1.1.8-2.3.5-3.1-.7l-2.9-4.3c-.8-1.2-.6-2.3.5-3.1,1.2-.8,2.3-.5,3.1.6Z"/>
  <path class="st0" d="M41.3,10.5l2.2,4.4c.7,1.3.3,2.5-1,3.2-1.3.6-2.5.2-3.1-1.1l-2.2-4.4c-.7-1.3-.3-2.5,1-3.2s2.5-.2,3.1,1.1ZM38.5,12l2.2,4.4c.3.6.8.8,1.3.6.5-.3.6-.7.3-1.4l-2.2-4.4c-.3-.6-.8-.8-1.3-.6-.5.3-.6.7-.3,1.4Z"/>
  <path class="st0" d="M52.9,13.8l-1.3.5-2.1-6.2h0s.6,5.3.6,5.3l-.8.3-2.8-4.6h0s2.1,6.2,2.1,6.2l-1.3.4-3.1-9,1.8-.6,2.7,4.5h0s-.6-5.2-.6-5.2l1.8-.6,3.1,9Z"/>
  <path class="st0" d="M58.2,4.4l-2.5.5.5,2.6,2-.4.3,1.3-2,.4.5,2.8,2.5-.5.3,1.3-3.9.8-1.8-9.3,3.9-.8.3,1.3Z"/>
  <path class="st0" d="M70.2,3.5h-1.5s.1,8.2.1,8.2h-1.4s-.1-8.1-.1-8.1h-1.5s0-1.3,0-1.3h4.4c0,0,0,1.3,0,1.3Z"/>
  <path class="st0" d="M77.9,5l-.5,4.9c-.1,1.5-1.1,2.3-2.5,2.2-1.4-.1-2.2-1.1-2-2.6l.5-4.9c.1-1.5,1.1-2.3,2.5-2.2,1.4.1,2.2,1.1,2,2.6ZM74.8,4.7l-.5,4.9c0,.7.2,1.1.8,1.2.6,0,.9-.3,1-1l.5-4.9c0-.7-.2-1.1-.8-1.2s-.9.3-1,1Z"/>
  <path class="st0" d="M90.2,7l-2.4-.7-.8,2.6,1.9.6-.4,1.3-1.9-.6-1.2,4-1.4-.4,2.7-9.1,3.8,1.1-.4,1.3Z"/>
  <path class="st0" d="M94.1,17.3l-1.3-.6.6-2.1-1.4-.6-1.1,1.9-1.3-.6,5.2-8.1,1.7.7-2.2,9.4ZM94.6,9.4l-2.1,3.5,1.1.5,1-3.9h0Z"/>
  <path class="st0" d="M100.3,20.7l-1.2-.7,2.1-3.6-1.5-.8-2.1,3.6-1.2-.7,4.8-8.2,1.2.7-2,3.5,1.5.8,2-3.5,1.2.7-4.8,8.2Z"/>
  <path class="st0" d="M107.5,26.1l-1.1-.9,4.1-5.2h0s-4.2,3.4-4.2,3.4l-.7-.5,2.3-4.8h0s-4.1,5.2-4.1,5.2l-1-.8,5.9-7.4,1.5,1.2-2.3,4.7h0s4-3.3,4-3.3l1.5,1.2-5.9,7.4Z"/>
  <path class="st0" d="M110.7,29.2l-1-1,6.7-6.7,1,1-6.7,6.7Z"/>
  <path class="st0" d="M123.8,34.3l-.6.4c-1.3.9-2.4.7-3.3-.5l-.4-.5-3.2,2.3-.8-1.2,7.7-5.5,1.2,1.7c.9,1.2.7,2.4-.6,3.3ZM123,31.2l-2.4,1.7.3.5c.4.6.9.6,1.5.1l.5-.3c.7-.5.8-.9.4-1.5l-.3-.5Z"/>
  <path class="st0" d="M127.9,41.1l-4.4,2.3c-1.3.7-2.5.4-3.2-.9s-.3-2.4,1-3.2l4.4-2.3c1.3-.7,2.5-.4,3.2.9.7,1.3.3,2.4-1,3.2ZM126.4,38.3l-4.3,2.3c-.6.3-.8.8-.5,1.3.3.5.7.6,1.4.3l4.3-2.3c.6-.3.8-.8.5-1.3-.3-.5-.7-.6-1.4-.3Z"/>
  <path class="st0" d="M123.9,50.1l3.3-2.5-.2-.6-3.7,1.4-.5-1.3,8.8-3.4.7,1.9c.5,1.4,0,2.5-1.4,3.1l-.6.2c-.9.4-1.7.3-2.3-.2l-3.6,2.8-.5-1.4ZM130.8,45.6l-2.6,1,.2.5c.2.6.7.8,1.4.5l.5-.2c.7-.3,1-.7.7-1.3l-.2-.5Z"/>
  <path class="st0" d="M133.9,55.6l-.4-1.5-7.9,2-.4-1.4,7.9-2-.4-1.5,1.3-.3,1.1,4.3-1.3.3Z"/>
  <path class="st0" d="M134.2,63.4l-4.9.7c-1.5.2-2.5-.5-2.7-1.9s.6-2.4,2.1-2.6l4.9-.7c1.5-.2,2.5.5,2.7,1.9.2,1.4-.6,2.4-2.1,2.6ZM133.8,60.3l-4.9.7c-.7,0-1,.5-1,1,0,.6.5.8,1.2.7l4.9-.7c.7,0,1-.5,1-1,0-.6-.5-.8-1.2-.7Z"/>
  <path class="st0" d="M135.5,71.1v-2.5s-2.7,0-2.7,0v2s-1.3,0-1.3,0v-2s-4.2,0-4.2,0v-1.4s9.5-.2,9.5-.2v3.9c0,0-1.3,0-1.3,0Z"/>
  <path class="st0" d="M134,78.8l-4.9-.5c-1.5-.1-2.3-1.1-2.2-2.5s1.1-2.2,2.6-2l4.9.5c1.5.1,2.3,1.1,2.2,2.5s-1.1,2.2-2.6,2ZM134.3,75.7l-4.9-.5c-.7,0-1.1.2-1.2.8s.3.9,1,1l4.9.5c.7,0,1.1-.2,1.2-.8s-.3-.9-1-1Z"/>
  <path class="st0" d="M127.3,82.7l-.5,2.3-1.3-.3.8-3.7,9.3,2-.3,1.4-7.9-1.7Z"/>
  <path class="st0" d="M124.3,88.4l.4-1.4,9,2.9-.4,1.4-9-2.9Z"/>
  <path class="st0" d="M128.2,98.3l-4.5-2c-1.4-.6-1.9-1.8-1.3-3.1.6-1.3,1.7-1.7,3.1-1.1l4.5,2c1.4.6,1.8,1.8,1.3,3.1-.6,1.3-1.7,1.7-3.1,1.1ZM129.4,95.4l-4.5-2c-.6-.3-1.1-.2-1.3.4-.2.5,0,.9.6,1.2l4.5,2c.6.3,1.1.2,1.3-.4.2-.5,0-.9-.6-1.2Z"/>
  <path class="st0" d="M115,106l.8-1.2,5,2.7h0s-4.1-4-4.1-4l.8-1.2,8.5,4.4-.9,1.2-5.6-3h0s4.6,4.4,4.6,4.4l-.7,1-5.6-3h0s4.6,4.4,4.6,4.4l-.8,1.2-6.8-6.7Z"/>
  <path class="st0" d="M115.6,117.5l1.8-1.9-1.9-1.9-1.4,1.5-1-.9,1.4-1.5-2-1.9-1.8,1.9-1-.9,2.8-2.9,6.8,6.5-2.8,2.9-1-.9Z"/>
  <path class="st0" d="M107.4,115.7l-1.8,1.5-.9-1,2.9-2.4,6.1,7.3-1.1.9-5.2-6.2Z"/>
  <path class="st0" d="M103.3,126l-.5-.7,1.1-.8.4.6c.4.6.8.8,1.3.5.4-.3.5-.7.1-1.2l-2.9-4.3c-.3-.5-.8-.6-1.2-.4-.4.3-.5.7,0,1.4l.6.9-1.2.7-.6-.9c-.8-1.2-.6-2.3.6-3.1,1.1-.8,2.3-.5,3.1.7l2.9,4.3c.8,1.2.6,2.3-.6,3.1-1.2.8-2.3.5-3.1-.7Z"/>
  <path class="st0" d="M96,129.8l-2.2-4.4c-.7-1.3-.3-2.5,1-3.2,1.3-.6,2.5-.2,3.1,1.1l2.2,4.4c.7,1.3.3,2.5-1,3.2-1.3.6-2.5.2-3.1-1.1ZM98.9,128.3l-2.2-4.4c-.3-.6-.8-.8-1.3-.6-.5.3-.6.7-.3,1.4l2.2,4.4c.3.6.8.8,1.3.6.5-.3.6-.7.3-1.4Z"/>
  <path class="st0" d="M84.5,126.3l1.3-.4,2.1,6.2h0s-.5-5.3-.5-5.3l.8-.3,2.8,4.6h0s-2.1-6.3-2.1-6.3l1.3-.4,3,9-1.8.6-2.7-4.5h0s.6,5.2.6,5.2l-1.8.6-3-9Z"/>
  <path class="st0" d="M79.1,135.7l2.5-.5-.5-2.6-2,.4-.2-1.3,2-.4-.5-2.8-2.5.5-.2-1.3,3.9-.7,1.7,9.3-3.9.7-.2-1.3Z"/>
  <path class="st0" d="M67.2,136.5h1.5s-.1-8.2-.1-8.2h1.4s.1,8.1.1,8.1h1.5s0,1.3,0,1.3h-4.4c0,0,0-1.3,0-1.3Z"/>
  <path class="st0" d="M59.4,134.9l.6-4.9c.2-1.5,1.1-2.3,2.5-2.1s2.2,1.2,2,2.6l-.6,4.9c-.2,1.5-1.1,2.3-2.5,2.1s-2.2-1.2-2-2.6ZM62.6,135.2l.5-4.9c0-.7-.2-1.1-.7-1.2-.6,0-.9.3-1,1l-.5,4.9c0,.7.2,1.1.7,1.2.6,0,.9-.3,1-1Z"/>
  <path class="st0" d="M47.1,132.8l2.4.7.8-2.6-1.9-.6.4-1.3,1.9.6,1.2-4,1.4.4-2.8,9-3.7-1.2.4-1.3Z"/>
  <path class="st0" d="M43.4,122.5l1.3.6-.6,2.1,1.4.6,1.1-1.9,1.3.6-5.3,8-1.7-.7,2.3-9.3ZM42.8,130.3l2.1-3.4-1.1-.5-1.1,3.9h0Z"/>
  <path class="st0" d="M37.3,119l1.2.7-2.1,3.5,1.4.9,2.1-3.5,1.2.7-4.9,8.1-1.2-.7,2-3.4-1.4-.9-2,3.4-1.2-.7,4.9-8.1Z"/>
  <path class="st0" d="M30.1,113.5l1.1.9-4.1,5.1h0s4.2-3.3,4.2-3.3l.7.5-2.4,4.8h0s4.1-5.1,4.1-5.1l1,.8-6,7.4-1.4-1.2,2.3-4.7h0s-4.1,3.3-4.1,3.3l-1.5-1.2,6-7.4Z"/>
  <path class="st0" d="M26.9,110.3l1,1-6.8,6.6-1-1,6.8-6.6Z"/>
  <path class="st0" d="M13.8,105.2l.6-.4c1.3-.9,2.4-.7,3.3.6l.4.5,3.2-2.2.8,1.2-7.8,5.4-1.2-1.7c-.9-1.3-.7-2.4.6-3.3ZM14.7,108.3l2.4-1.7-.3-.5c-.4-.6-.9-.6-1.5-.2l-.5.3c-.7.5-.8.9-.4,1.5l.3.5Z"/>
  <path class="st0" d="M9.8,98.3l4.4-2.3c1.3-.7,2.5-.3,3.2.9.7,1.3.3,2.4-1.1,3.1l-4.4,2.3c-1.3.7-2.5.3-3.2-.9-.7-1.3-.3-2.4,1.1-3.1ZM11.3,101.1l4.4-2.3c.6-.3.8-.8.6-1.3-.3-.5-.7-.6-1.4-.3l-4.4,2.3c-.6.3-.8.8-.6,1.3s.7.6,1.4.3Z"/>
  <path class="st0" d="M14,89.3l-3.4,2.5.2.6,3.8-1.4.5,1.3-8.9,3.3-.7-1.9c-.5-1.4,0-2.5,1.4-3l.6-.2c.9-.4,1.7-.3,2.3.2l3.6-2.7.5,1.4ZM6.9,93.8l2.6-1-.2-.5c-.2-.6-.7-.8-1.4-.5l-.5.2c-.7.3-1,.7-.7,1.3l.2.5Z"/>
  <path class="st0" d="M4,83.7l.4,1.5,7.9-1.9.3,1.4-7.9,1.9.4,1.5-1.3.3-1.1-4.3,1.3-.3Z"/>
  <path class="st0" d="M3.7,75.9l4.9-.6c1.5-.2,2.5.6,2.7,2,.2,1.4-.6,2.4-2.1,2.6l-4.9.6c-1.5.2-2.5-.6-2.7-2-.2-1.4.6-2.4,2.1-2.6ZM4.1,79l4.9-.6c.7,0,1-.4,1-1s-.5-.8-1.2-.7l-4.9.6c-.7,0-1,.4-1,1s.5.8,1.2.7Z"/>
  <path class="st0" d="M2.5,68.3v2.5s2.7,0,2.7,0v-2s1.3,0,1.3,0v2s4.2,0,4.2,0v1.4s-9.5.2-9.5.2v-3.9c0,0,1.3,0,1.3,0Z"/>
  <path class="st0" d="M4.1,60.5l4.9.5c1.5.2,2.3,1.1,2.1,2.5s-1.2,2.2-2.6,2l-4.9-.5c-1.5-.2-2.3-1.1-2.1-2.5.2-1.4,1.2-2.2,2.6-2ZM3.8,63.7l4.9.5c.7,0,1.1-.2,1.2-.7s-.3-.9-1-1l-4.9-.5c-.7,0-1.1.2-1.2.7,0,.6.3.9,1,1Z"/>
  <path class="st0" d="M10.8,56.7l.5-2.3,1.3.3-.8,3.7-9.2-2.1.3-1.4,7.9,1.8Z"/>
  <path class="st0" d="M13.9,51l-.4,1.3-9-3,.4-1.3,9,3Z"/>
  <path class="st0" d="M10.1,41.1l4.5,2c1.4.6,1.8,1.8,1.2,3.1s-1.8,1.7-3.1,1.1l-4.5-2c-1.4-.6-1.8-1.8-1.3-3.1s1.8-1.7,3.1-1.1ZM8.9,44l4.5,2c.6.3,1.1.2,1.3-.4.2-.5,0-.9-.6-1.2l-4.5-2c-.6-.3-1.1-.2-1.3.4s0,.9.6,1.2Z"/>
</svg>